<svg width="1200" height="1000" viewBox="0 0 1200 1000" fill="none" xmlns="http://www.w3.org/2000/svg">
  <rect width="1200" height="1000" rx="48" fill="url(#paint0_linear_1_2)"/>
  <circle cx="965" cy="165" r="124" fill="#DBEAFE"/>
  <circle cx="200" cy="245" r="108" fill="#E0E7FF"/>
  <rect x="170" y="220" width="860" height="540" rx="40" fill="white" stroke="#E2E8F0" stroke-width="4"/>
  <rect x="222" y="276" width="220" height="26" rx="13" fill="#BFDBFE"/>
  <rect x="222" y="326" width="380" height="20" rx="10" fill="#E2E8F0"/>
  <rect x="222" y="362" width="320" height="20" rx="10" fill="#E2E8F0"/>
  <rect x="222" y="432" width="280" height="110" rx="26" fill="#EFF6FF"/>
  <rect x="528" y="432" width="280" height="110" rx="26" fill="#F5F3FF"/>
  <rect x="834" y="432" width="140" height="110" rx="26" fill="#ECFEFF"/>
  <rect x="222" y="580" width="210" height="34" rx="17" fill="#2563EB"/>
  <rect x="222" y="640" width="680" height="22" rx="11" fill="#E2E8F0"/>
  <rect x="222" y="680" width="560" height="22" rx="11" fill="#E2E8F0"/>
  <rect x="528" y="276" width="300" height="24" rx="12" fill="#93C5FD"/>
  <rect x="528" y="320" width="220" height="16" rx="8" fill="#CBD5E1"/>
  <rect x="530" y="350" width="260" height="16" rx="8" fill="#CBD5E1"/>
  <circle cx="860" cy="300" r="60" fill="#DBEAFE"/>
  <circle cx="860" cy="300" r="30" fill="#2563EB"/>
  <defs>
    <linearGradient id="paint0_linear_1_2" x1="0" y1="0" x2="1200" y2="1000" gradientUnits="userSpaceOnUse">
      <stop stop-color="#F8FAFC"/>
      <stop offset="0.55" stop-color="#EFF6FF"/>
      <stop offset="1" stop-color="#EEF2FF"/>
    </linearGradient>
  </defs>
</svg>